<?xml version="1.0" encoding="utf-8"?>
<!-- Generator: Adobe Illustrator 22.1.0, SVG Export Plug-In . SVG Version: 6.00 Build 0)  -->
<svg version="1.1" id="Layer_1" xmlns="http://www.w3.org/2000/svg" xmlns:xlink="http://www.w3.org/1999/xlink" x="0px" y="0px"
	 viewBox="0 0 250 150" style="enable-background:new 0 0 250 150;" xml:space="preserve">
<style type="text/css">
	.st0{fill:#ED232F;}
</style>
<g>
	<g>
		<g>
			<g>
				<path class="st0" d="M0,71.2V47.3h13.4c0,0,0,0,0,0.1C13.5,47.3,15.3,64.4,0,71.2z"/>
				<g>
					<path d="M64.6,28.7h14.5c0,0,27.3-3.3,27.3,26.5c0,0,2.9,26.5-27.3,26.5h-3.8c-0.3,0-0.6,0-0.9,0c-0.1,0-0.2,0-0.3,0
						c-0.2,0-0.4,0-0.6-0.1c-0.1,0-0.2,0-0.3-0.1c-0.2,0-0.3-0.1-0.5-0.1c-0.1,0-0.2-0.1-0.3-0.1c-0.2,0-0.3-0.1-0.5-0.2
						c-0.1,0-0.2-0.1-0.2-0.1c-0.2-0.1-0.3-0.1-0.5-0.2c-0.1,0-0.1-0.1-0.2-0.1c-0.4-0.2-0.8-0.5-1.2-0.7c0,0-0.1-0.1-0.1-0.1
						c-0.1-0.1-0.3-0.2-0.4-0.3c-0.1,0-0.1-0.1-0.1-0.1c-0.1-0.1-0.2-0.2-0.3-0.3c0,0-0.1-0.1-0.1-0.1c-0.1-0.1-0.2-0.2-0.3-0.4
						c0,0-0.1-0.1-0.1-0.1c-0.1-0.1-0.2-0.3-0.3-0.4c0,0,0-0.1-0.1-0.1c-0.3-0.4-0.5-0.8-0.7-1.2c0,0,0,0,0-0.1
						c-0.1-0.2-0.2-0.3-0.2-0.5c0,0,0-0.1-0.1-0.1c-0.1-0.2-0.1-0.3-0.2-0.5c0,0,0-0.1-0.1-0.1c-0.1-0.2-0.1-0.3-0.2-0.5
						c0,0,0-0.1,0-0.1c-0.1-0.2-0.1-0.3-0.2-0.5c0,0,0-0.1,0-0.1c-0.1-0.4-0.2-0.8-0.3-1.2c0,0,0,0,0-0.1c0-0.2-0.1-0.3-0.1-0.5
						c0-0.1,0-0.1,0-0.2c0-0.1,0-0.3-0.1-0.4c0-0.1,0-0.1,0-0.2c0-0.1,0-0.2,0-0.4c0-0.1,0-0.1,0-0.2c0-0.1,0-0.2,0-0.3
						c0-0.1,0-0.1,0-0.2c0-0.1,0-0.2,0-0.4c0-0.1,0-0.2,0-0.2c0-0.1,0-0.2,0-0.3c0-0.1,0-0.2,0-0.3c0,0,0-0.1,0-0.1
						c0-0.1,0-0.2,0-0.3c0,0,0,0,0-0.1c0-0.1,0-0.2,0-0.3v-0.8h13.6c0,0,13.9,1.6,14-12.9c0.1-13.6-14-12.9-14-12.9H63
						c-9.8,0-9.8,8.2-9.8,8.2l-0.1,43.7c0,0,3.3,27.3-26.5,27.3c0,0-26.5,2.9-26.5-27.3v1.1l0.1-0.1C0,93.8-1.1,77.9,13.5,71.5v0
						l0,0v1.7v21c0,0-1.5,13.8,13,14c13.6,0.1,12.9-14,12.9-14V55.9C39.4,55.9,37.7,29.1,64.6,28.7z"/>
					<path d="M113.4,52.4c-0.2,2.4,0,0.3,0,0.3c0,0,0,0,0,0.1h0v15.4h-0.2l0.2,0.2v25.8c0,0.3-0.8,20.7,13.6,26.6l0.1-52.6V50.4
						c-0.1-4.6,3.6-8.1,8.8-8.1h16c0,0,14.1-0.7,14,12.9c-0.1,14.5-14,12.9-14,12.9h-12v0.8c0.1,2.8,0.9,12.9,9.8,12.9h2.2
						c0.3,0,0.5,0,0.8,0l0,0c0,0,0,0,0,0c0,0,0,0,0,0c12.7,0.1,13,10.8,12.9,13.4l0,0l0.1,0.6v1.1l0.1,0.1
						c1.9,26.6,26.4,23.9,26.4,23.9c0,0,0,0,0.1,0l0,0.1c8.5,0,18.1-0.1,24.3-0.1c4,0,10.1,0.1,11.7-0.1
						c19.9-2.3,21.8-18.2,21.8-24.4c0-1.6-0.1-2.5-0.1-2.5v-0.5V56.6v-0.2v-0.5c0,0,3.3-27.3-26.5-27.3c0,0-26.5-2.9-26.5,27.3v12.3
						v6.8v14.3v6.5h5.2c6.4-0.8,8-7.3,8.4-11v-28v-0.9v-0.6l0,0c-0.1-2.6,0.2-13.3,12.9-13.4c11.7-0.1,12.7,10.2,12.8,13.2v1.4v37.2
						c0,0,0.1,1.3-0.1,3c-0.3,2.3-1.2,5.4-3.6,7.8c-1.9,1.8-4.8,3.1-9.2,3.1c-0.1,0-0.8,0-1.8,0c-0.3,0-0.7-0.1-1-0.1h-1.1h-20.1
						h-0.1c0,0,0,0,0,0.1c-2.3,0-4.7,0-6.9,0l0,0c0,0,0,0-0.1,0c-10.8-0.1-12.7-7.9-12.9-11.8h0v0c0-10.2-3-16.6-7.1-20.7
						c8.3-7.9,7-19.8,7-19.8c0-29.8-27.3-26.5-27.3-26.5h-12.8C139.1,28.7,115.2,26.3,113.4,52.4z"/>
				</g>
			</g>
		</g>
	</g>
</g>
</svg>
