<?xml version="1.0" encoding="utf-8"?>
<!-- Generator: Adobe Illustrator 24.2.3, SVG Export Plug-In . SVG Version: 6.00 Build 0)  -->
<svg version="1.1" id="Layer_1" xmlns="http://www.w3.org/2000/svg" xmlns:xlink="http://www.w3.org/1999/xlink" x="0px" y="0px"
	 viewBox="0 0 136.22 21.56" style="enable-background:new 0 0 136.22 21.56;" xml:space="preserve">
<style type="text/css">
	.st0{fill:#8D9BCE;}
	.st1{fill-rule:evenodd;clip-rule:evenodd;fill:#FFFFFF;}
	.st2{fill:#FFFFFF;}
	.st3{fill:none;stroke:#E1E1E1;stroke-width:2;stroke-linecap:round;stroke-miterlimit:10;}
	.st4{fill:#BDC7E5;stroke:#C68B74;stroke-miterlimit:10;}
	.st5{fill:none;stroke:#C68B74;stroke-width:2;stroke-linecap:round;}
	.st6{fill:#FFFFFF;stroke:#C68B74;stroke-miterlimit:10;}
	.st7{fill:none;stroke:#C68B74;stroke-width:2;stroke-miterlimit:10;}
	.st8{fill:none;stroke:#C68B74;stroke-width:2;stroke-linecap:round;stroke-miterlimit:10;}
	.st9{opacity:0.5;fill:none;stroke:#8D9BCE;stroke-width:2;stroke-linecap:round;stroke-linejoin:round;enable-background:new    ;}
	.st10{fill:#FFFFFF;stroke:#8D9BCE;stroke-width:2;stroke-linecap:round;stroke-linejoin:round;}
	.st11{fill:none;stroke:#8D9BCE;stroke-width:2.08;stroke-linecap:round;stroke-linejoin:round;}
	.st12{fill:none;stroke:#8D9BCE;stroke-width:2;stroke-linecap:round;stroke-linejoin:round;}
	.st13{fill:#FFFFFF;stroke:#8D9BCE;stroke-width:2.08;stroke-linecap:round;stroke-linejoin:round;}
	.st14{fill:none;stroke:#FFFFFF;stroke-width:2;stroke-linecap:round;}
	.st15{fill:none;stroke:#8D9BCE;stroke-miterlimit:10;}
	.st16{fill:none;stroke:#8D9BCE;stroke-width:2;stroke-linecap:round;}
	.st17{fill:#C68B74;}
	.st18{fill:none;stroke:#8D9BCE;stroke-width:3;stroke-linecap:round;stroke-linejoin:round;}
	.st19{fill:none;stroke:#8D9BCE;stroke-width:2;stroke-linecap:round;stroke-linejoin:round;stroke-miterlimit:10;}
	.st20{opacity:0.8;fill:none;stroke:#8D9BCE;stroke-width:2;stroke-linecap:round;stroke-linejoin:round;stroke-miterlimit:10;}
	.st21{fill:none;stroke:#8D9BCE;stroke-width:3;stroke-miterlimit:10;}
	.st22{opacity:0.8;fill:none;stroke:#8D9BCE;stroke-width:3;stroke-miterlimit:10;}
	.st23{opacity:0.8;}
	.st24{opacity:0.7;fill:none;stroke:#8D9BCE;stroke-width:2;stroke-linecap:round;stroke-linejoin:round;stroke-miterlimit:10;}
	.st25{fill:none;stroke:#8D9BCE;stroke-linecap:round;stroke-linejoin:round;stroke-miterlimit:10;}
</style>
<g>
	<g>
		<path class="st0" d="M7.62,11.75v5.72c0,1.12,0.07,1.82,0.21,2.11c0.14,0.29,0.38,0.52,0.73,0.69c0.35,0.17,0.99,0.26,1.92,0.26
			v0.56H0v-0.56c0.95,0,1.6-0.09,1.94-0.27c0.34-0.18,0.58-0.41,0.71-0.69c0.14-0.28,0.21-0.98,0.21-2.1V4.09
			c0-1.12-0.07-1.82-0.21-2.11C2.52,1.7,2.28,1.46,1.93,1.29S0.94,1.03,0,1.03V0.47h8.99c2.96,0,5.08,0.53,6.37,1.58
			s1.93,2.37,1.93,3.95c0,1.34-0.42,2.48-1.25,3.44c-0.83,0.95-1.98,1.6-3.44,1.95C11.62,11.63,9.96,11.75,7.62,11.75z M7.62,1.66
			v8.91c0.33,0.02,0.59,0.03,0.76,0.03c1.24,0,2.19-0.37,2.86-1.1c0.67-0.73,1-1.87,1-3.41c0-1.53-0.33-2.65-1-3.36
			c-0.67-0.71-1.67-1.06-3-1.06H7.62z"/>
		<path class="st0" d="M29.21,1.66v8.39h0.41c1.31,0,2.26-0.41,2.84-1.23c0.59-0.82,0.96-2.03,1.13-3.63h0.58v10.8h-0.58
			c-0.12-1.18-0.38-2.14-0.77-2.89c-0.39-0.75-0.84-1.25-1.36-1.51c-0.52-0.26-1.27-0.39-2.25-0.39V17c0,1.14,0.05,1.83,0.14,2.08
			c0.1,0.25,0.28,0.46,0.54,0.62c0.26,0.16,0.69,0.24,1.28,0.24h1.23c1.93,0,3.47-0.45,4.63-1.34c1.16-0.89,1.99-2.25,2.5-4.07h0.56
			l-0.93,6.55H21.34v-0.56h0.68c0.6,0,1.08-0.11,1.44-0.32c0.26-0.14,0.47-0.38,0.61-0.73c0.11-0.24,0.17-0.88,0.17-1.92V4
			c0-0.93-0.03-1.5-0.08-1.72c-0.1-0.36-0.29-0.63-0.56-0.82c-0.39-0.28-0.91-0.43-1.58-0.43h-0.68V0.47H38.6v6.1h-0.58
			c-0.29-1.49-0.71-2.56-1.24-3.21s-1.28-1.13-2.26-1.43c-0.57-0.18-1.63-0.27-3.19-0.27H29.21z"/>
		<path class="st0" d="M64.77,0v7.15h-0.59c-0.45-1.87-1.28-3.29-2.49-4.29c-1.22-0.99-2.6-1.49-4.14-1.49
			c-1.29,0-2.47,0.37-3.54,1.11c-1.07,0.74-1.86,1.71-2.36,2.9c-0.64,1.53-0.96,3.23-0.96,5.11c0,1.84,0.23,3.53,0.7,5.04
			c0.47,1.52,1.2,2.66,2.19,3.44c0.99,0.78,2.28,1.16,3.86,1.16c1.3,0,2.49-0.28,3.57-0.85c1.08-0.57,2.22-1.55,3.41-2.93v1.78
			c-1.16,1.21-2.36,2.08-3.61,2.62c-1.25,0.54-2.71,0.81-4.39,0.81c-2.2,0-4.15-0.44-5.86-1.32c-1.71-0.88-3.03-2.15-3.95-3.8
			c-0.93-1.65-1.39-3.41-1.39-5.28c0-1.97,0.51-3.83,1.54-5.6c1.03-1.76,2.42-3.13,4.17-4.11C52.67,0.49,54.53,0,56.49,0
			c1.45,0,2.98,0.31,4.59,0.94c0.93,0.37,1.52,0.55,1.78,0.55c0.32,0,0.61-0.12,0.84-0.36C63.95,0.89,64.1,0.52,64.17,0H64.77z"/>
		<path class="st0" d="M88.6,0.47v5.58h-0.55c-0.32-1.29-0.68-2.21-1.08-2.78c-0.4-0.56-0.94-1.01-1.63-1.35
			c-0.39-0.18-1.06-0.27-2.02-0.27h-1.54v15.9c0,1.05,0.06,1.71,0.18,1.98c0.12,0.26,0.34,0.49,0.68,0.69c0.34,0.2,0.8,0.3,1.39,0.3
			h0.68v0.56H73.93v-0.56h0.68c0.6,0,1.08-0.11,1.44-0.32c0.26-0.14,0.47-0.38,0.62-0.73c0.11-0.24,0.17-0.88,0.17-1.92V1.66h-1.49
			c-1.39,0-2.4,0.29-3.02,0.88c-0.88,0.82-1.44,1.99-1.67,3.51h-0.58V0.47H88.6z"/>
		<path class="st0" d="M103.62,20.53v0.56H92.84v-0.56h0.68c0.6,0,1.08-0.11,1.44-0.32c0.26-0.14,0.47-0.38,0.61-0.73
			c0.11-0.24,0.17-0.88,0.17-1.92V4c0-1.05-0.06-1.71-0.17-1.98c-0.11-0.26-0.34-0.49-0.68-0.69c-0.34-0.2-0.8-0.3-1.38-0.3h-0.68
			V0.47h10.78v0.56h-0.68c-0.6,0-1.08,0.11-1.44,0.32c-0.26,0.14-0.47,0.39-0.62,0.73c-0.11,0.24-0.17,0.88-0.17,1.92v13.56
			c0,1.05,0.06,1.71,0.17,1.98c0.12,0.26,0.34,0.49,0.68,0.69c0.34,0.2,0.8,0.3,1.38,0.3H103.62z"/>
		<path class="st0" d="M129,0.47v0.56c-0.75,0.12-1.42,0.52-2.01,1.2c-0.43,0.51-1.06,1.7-1.9,3.57l-7.1,15.75h-0.5l-7.07-16.39
			c-0.85-1.98-1.42-3.14-1.71-3.48c-0.29-0.34-0.83-0.56-1.63-0.65V0.47h9.88v0.56h-0.33c-0.89,0-1.5,0.11-1.82,0.33
			c-0.23,0.15-0.35,0.37-0.35,0.67c0,0.18,0.04,0.4,0.12,0.65c0.08,0.25,0.35,0.92,0.82,2l4.39,10.26l4.07-9.14
			c0.49-1.1,0.79-1.84,0.9-2.22c0.11-0.37,0.17-0.69,0.17-0.96c0-0.3-0.08-0.57-0.24-0.81c-0.16-0.23-0.4-0.41-0.72-0.53
			c-0.44-0.17-1.01-0.26-1.73-0.26V0.47H129z"/>
	</g>
	<g>
		<path class="st0" d="M133.95,0c0.38,0,0.75,0.1,1.11,0.29c0.36,0.19,0.64,0.47,0.85,0.83s0.3,0.74,0.3,1.13
			c0,0.39-0.1,0.77-0.3,1.12s-0.48,0.64-0.84,0.84c-0.36,0.2-0.73,0.3-1.12,0.3c-0.39,0-0.76-0.1-1.12-0.3
			c-0.36-0.2-0.64-0.48-0.84-0.84s-0.3-0.73-0.3-1.12c0-0.39,0.1-0.77,0.3-1.13s0.48-0.64,0.85-0.83C133.21,0.1,133.58,0,133.95,0z
			 M133.95,0.19c-0.35,0-0.68,0.09-1.01,0.27s-0.59,0.43-0.77,0.76s-0.28,0.67-0.28,1.03c0,0.36,0.09,0.7,0.27,1.03
			c0.18,0.33,0.44,0.58,0.76,0.76c0.33,0.18,0.67,0.27,1.03,0.27s0.7-0.09,1.03-0.27c0.33-0.18,0.58-0.44,0.76-0.76
			c0.18-0.33,0.27-0.67,0.27-1.03c0-0.36-0.09-0.7-0.28-1.03s-0.44-0.58-0.77-0.76S134.3,0.19,133.95,0.19z M132.71,0.87h1.23
			c0.31,0,0.54,0.07,0.7,0.21s0.24,0.31,0.24,0.5c0,0.16-0.05,0.3-0.16,0.43s-0.29,0.22-0.54,0.28l0.67,0.95
			c0.08,0.11,0.15,0.19,0.22,0.23c0.04,0.03,0.1,0.04,0.17,0.05v0.11h-0.59l-0.94-1.29h-0.24v0.98c0.01,0.07,0.04,0.12,0.09,0.15
			s0.14,0.05,0.29,0.05v0.11h-1.17V3.52c0.1,0,0.17-0.01,0.22-0.04c0.04-0.02,0.07-0.06,0.09-0.11c0.01-0.03,0.02-0.13,0.02-0.3
			V1.41c0-0.16,0-0.25-0.01-0.28c-0.01-0.05-0.04-0.09-0.08-0.11c-0.04-0.03-0.11-0.04-0.2-0.04V0.87z M133.46,2.2
			c0.25,0,0.43-0.02,0.55-0.07c0.12-0.05,0.2-0.12,0.27-0.21c0.06-0.09,0.09-0.19,0.09-0.3c0-0.17-0.06-0.32-0.18-0.43
			s-0.27-0.18-0.46-0.18c-0.08,0-0.17,0.02-0.27,0.05V2.2z"/>
	</g>
</g>
</svg>
